<svg width="600" height="600" viewBox="0 0 600 600" fill="none" xmlns="http://www.w3.org/2000/svg">
<rect width="600" height="600" rx="300" fill="#67161F"/>
<path d="M222.311 282.779L218.417 293.276C216.611 298.017 214.974 302.362 213.507 306.313C212.04 310.263 211.306 313.649 211.306 316.471C211.306 316.923 211.306 317.431 211.306 317.995C211.419 318.446 211.588 318.954 211.814 319.519C212.04 320.76 212.491 321.889 213.168 322.905C213.846 323.808 214.636 324.259 215.539 324.259H222.988V329H188.619V324.259H192.682C194.375 324.259 196.238 323.018 198.269 320.535C200.414 318.051 203.01 313.537 206.058 306.99C207.638 303.717 211.024 295.759 216.216 283.117C221.521 270.363 230.438 246.49 242.967 211.5H250.078L287.326 313.932C287.551 314.496 287.777 315.173 288.003 315.963C288.341 316.753 288.736 317.543 289.188 318.334C289.978 319.801 291.107 321.155 292.574 322.397C294.154 323.639 296.299 324.259 299.008 324.259H302.733V329H259.39V324.259H266.162C266.501 324.259 266.783 324.259 267.009 324.259C267.347 324.259 267.686 324.259 268.024 324.259C269.266 324.146 270.395 323.808 271.411 323.244C272.426 322.566 272.934 321.438 272.934 319.857C272.934 318.503 272.596 316.81 271.918 314.778C271.354 312.746 270.451 309.981 269.21 306.482L260.744 282.779H222.311ZM224.004 278.038H259.051L241.612 230.124L224.004 278.038ZM306.77 329V324.259H316.42C316.759 324.259 317.097 324.259 317.436 324.259C317.775 324.259 318.17 324.203 318.621 324.09C319.637 323.864 320.596 323.244 321.499 322.228C322.402 321.212 322.854 319.349 322.854 316.64V223.86C322.854 221.489 322.346 219.627 321.33 218.272C320.427 216.918 318.79 216.241 316.42 216.241H306.77V211.5H347.404C348.645 211.5 349.887 211.5 351.128 211.5C352.483 211.387 353.781 211.274 355.022 211.161C356.264 211.161 357.506 211.161 358.747 211.161C359.989 211.049 361.23 210.992 362.472 210.992C376.355 210.992 386.457 213.757 392.778 219.288C399.212 224.706 402.655 230.688 403.106 237.235C403.106 237.461 403.106 237.686 403.106 237.912C403.106 238.138 403.106 238.364 403.106 238.589C403.106 239.379 403.05 240.226 402.937 241.129C402.824 242.032 402.711 242.878 402.598 243.669C401.582 248.183 398.986 252.416 394.81 256.367C390.746 260.204 384.482 262.631 376.017 263.647C385.046 264.776 392.665 268.218 398.873 273.975C405.081 279.618 408.185 286.899 408.185 295.816C408.185 297.17 408.129 298.524 408.016 299.879C407.903 301.233 407.677 302.588 407.339 303.942C405.984 310.376 402.542 316.245 397.011 321.55C391.593 326.855 382.902 329.508 370.937 329.508C367.551 329.508 364.842 329.451 362.811 329.339C360.779 329.339 358.973 329.282 357.393 329.169C357.167 329.169 356.941 329.169 356.716 329.169C356.49 329.169 356.264 329.169 356.038 329.169C354.684 329.056 353.216 329 351.636 329C350.169 329 348.307 329 346.049 329H306.77ZM338.43 266.695V317.656C340.349 319.688 342.324 321.212 344.356 322.228C346.388 323.244 348.419 323.921 350.451 324.259C351.806 324.598 353.16 324.824 354.515 324.937C355.869 324.937 357.223 324.937 358.578 324.937C367.608 324.937 374.324 323.187 378.726 319.688C383.128 316.076 386.119 312.126 387.699 307.836C388.489 305.692 388.997 303.604 389.223 301.572C389.561 299.54 389.731 297.734 389.731 296.154C389.731 288.14 387.53 281.255 383.128 275.499C378.726 269.629 371.502 266.695 361.456 266.695H338.43ZM338.43 261.615H359.594C360.61 261.615 362.303 261.559 364.673 261.446C367.043 261.22 369.527 260.599 372.123 259.584C375.509 258.229 378.613 256.028 381.435 252.981C384.256 249.82 385.667 245.079 385.667 238.759C385.667 232.438 384.143 227.697 381.096 224.537C378.161 221.376 374.944 219.119 371.445 217.764C368.624 216.749 365.971 216.184 363.488 216.071C361.005 215.846 359.199 215.733 358.07 215.733C356.941 215.733 355.7 215.789 354.345 215.902C352.991 216.015 351.58 216.241 350.112 216.579C347.178 217.144 344.469 218.047 341.986 219.288C339.615 220.53 338.43 222.223 338.43 224.367V261.615Z" fill="#FFFBEF"/>
<path d="M128.263 372.465L126.756 376.526C126.058 378.36 125.424 380.041 124.857 381.57C124.289 383.098 124.005 384.409 124.005 385.5C124.005 385.675 124.005 385.872 124.005 386.09C124.049 386.265 124.114 386.461 124.202 386.679C124.289 387.16 124.464 387.597 124.726 387.99C124.988 388.339 125.293 388.514 125.643 388.514H128.525V390.348H115.227V388.514H116.799C117.454 388.514 118.175 388.033 118.961 387.072C119.791 386.112 120.795 384.365 121.974 381.832C122.586 380.566 123.896 377.487 125.905 372.596C127.957 367.661 131.407 358.424 136.255 344.886H139.006L153.417 384.518C153.505 384.736 153.592 384.998 153.679 385.304C153.81 385.609 153.963 385.915 154.138 386.221C154.444 386.789 154.88 387.313 155.448 387.793C156.059 388.273 156.889 388.514 157.937 388.514H159.378V390.348H142.609V388.514H145.229C145.36 388.514 145.469 388.514 145.557 388.514C145.688 388.514 145.819 388.514 145.95 388.514C146.43 388.47 146.867 388.339 147.26 388.121C147.653 387.859 147.849 387.422 147.849 386.81C147.849 386.286 147.718 385.631 147.456 384.845C147.238 384.059 146.889 382.989 146.408 381.635L143.133 372.465H128.263ZM128.918 370.63H142.478L135.731 352.092L128.918 370.63ZM202.144 344.886V346.721H198.606C197.908 347.288 197.362 348.205 196.969 349.472C196.576 350.738 196.27 352.048 196.052 353.402C195.877 354.712 195.768 355.957 195.724 357.136C195.68 358.272 195.659 359.167 195.659 359.822V391.265H193.3L164.936 355.236V375.674C164.936 376.591 164.936 377.378 164.936 378.033C164.98 378.688 165.024 379.321 165.067 379.932C165.067 380.194 165.067 380.478 165.067 380.784C165.111 381.09 165.133 381.417 165.133 381.766C165.176 383.12 165.286 384.234 165.46 385.107C165.635 385.981 165.831 386.679 166.05 387.203C166.181 387.597 166.312 387.902 166.443 388.121C166.618 388.295 166.749 388.426 166.836 388.514H170.373V390.348H156.617V388.514H159.958C160.351 388.121 160.678 387.684 160.94 387.203C161.202 386.679 161.443 385.872 161.661 384.78C161.705 384.649 161.726 384.496 161.726 384.321C161.77 384.147 161.814 383.972 161.857 383.797C161.901 383.622 161.945 383.339 161.988 382.946C162.076 382.553 162.141 382.072 162.185 381.504C162.272 380.762 162.36 379.91 162.447 378.95C162.534 377.945 162.578 376.854 162.578 375.674V351.961L156.551 344.886H164.74L193.3 381.766V358.053C193.3 353.904 193.017 351.088 192.449 349.603C191.925 348.118 191.292 347.157 190.549 346.721H187.274V344.886H202.144ZM215.722 344.886C217.12 344.886 218.081 344.886 218.605 344.886C219.172 344.843 219.653 344.821 220.046 344.821C220.046 344.821 220.068 344.821 220.111 344.821C220.155 344.821 220.177 344.799 220.177 344.755C220.614 344.755 221.159 344.755 221.814 344.755C222.513 344.712 223.736 344.69 225.483 344.69C232.339 344.69 237.47 345.978 240.877 348.555C244.283 351.088 246.641 353.904 247.951 357.005C248.912 359.145 249.502 361.219 249.72 363.228C249.938 365.193 250.048 366.722 250.048 367.814C250.048 369.08 249.917 370.521 249.655 372.137C249.393 373.753 248.934 375.412 248.279 377.116C246.925 380.478 244.501 383.557 241.008 386.352C237.514 389.147 232.295 390.544 225.352 390.544C224.784 390.544 224.304 390.522 223.911 390.479C223.518 390.479 223.125 390.479 222.732 390.479C222.644 390.479 222.535 390.457 222.404 390.413C222.273 390.413 222.12 390.413 221.946 390.413C221.683 390.413 221.4 390.391 221.094 390.348C220.788 390.348 220.439 390.348 220.046 390.348C219.347 390.348 218.627 390.348 217.884 390.348C217.185 390.348 216.465 390.348 215.722 390.348H203.276V388.514H207.01C207.141 388.514 207.272 388.514 207.403 388.514C207.534 388.514 207.687 388.492 207.862 388.448C208.255 388.361 208.626 388.121 208.975 387.728C209.325 387.334 209.499 386.614 209.499 385.566V349.668C209.499 348.62 209.325 347.9 208.975 347.507C208.626 347.114 208.255 346.873 207.862 346.786C207.687 346.742 207.534 346.721 207.403 346.721C207.272 346.721 207.141 346.721 207.01 346.721H203.276V344.886H215.722ZM215.526 348.358V386.876C216.443 387.487 217.6 387.968 218.998 388.317C220.439 388.623 222.47 388.776 225.09 388.776C230.33 388.776 234.326 387.16 237.077 383.928C239.829 380.653 241.597 377.05 242.383 373.12C242.558 372.246 242.689 371.373 242.776 370.499C242.864 369.582 242.907 368.709 242.907 367.879C242.907 362.595 241.99 358.512 240.156 355.629C238.322 352.747 236.313 350.629 234.13 349.275C232.121 348.009 230.243 347.245 228.496 346.983C226.793 346.677 225.767 346.524 225.417 346.524C224.107 346.524 222.906 346.568 221.814 346.655C220.723 346.742 219.631 346.917 218.539 347.179C218.059 347.31 217.557 347.485 217.033 347.703C216.552 347.878 216.05 348.096 215.526 348.358ZM266.882 368.076V385.566C266.882 386.614 267.056 387.334 267.406 387.728C267.755 388.121 268.126 388.361 268.519 388.448C268.694 388.492 268.847 388.514 268.978 388.514C269.109 388.514 269.24 388.514 269.371 388.514H273.105V390.348H254.632V388.514H258.366C258.497 388.514 258.628 388.514 258.759 388.514C258.89 388.514 259.043 388.492 259.217 388.448C259.611 388.361 259.982 388.121 260.331 387.728C260.68 387.334 260.855 386.614 260.855 385.566V349.668C260.855 348.62 260.68 347.9 260.331 347.507C259.982 347.114 259.611 346.873 259.217 346.786C259.043 346.742 258.89 346.721 258.759 346.721C258.628 346.721 258.497 346.721 258.366 346.721H254.632V344.886H263.082C264.261 344.886 265.331 344.843 266.292 344.755C267.297 344.668 268.214 344.559 269.043 344.428C269.393 344.384 269.698 344.341 269.961 344.297C270.266 344.253 270.572 344.21 270.878 344.166C271.445 344.122 271.991 344.079 272.515 344.035C273.083 343.991 273.651 343.969 274.218 343.969C280.07 343.969 284.328 344.886 286.992 346.721C289.7 348.555 291.403 350.564 292.102 352.747C292.32 353.359 292.473 353.948 292.56 354.516C292.647 355.084 292.691 355.651 292.691 356.219C292.691 360.018 291.054 362.966 287.778 365.062C284.547 367.115 280.9 368.141 276.839 368.141C276.708 368.141 276.577 368.141 276.446 368.141C276.358 368.141 276.271 368.119 276.184 368.076C276.053 368.076 275.922 368.076 275.791 368.076C275.703 368.076 275.594 368.076 275.463 368.076C279.874 369.473 283.062 371.416 285.027 373.906C287.036 376.395 288.673 378.993 289.94 381.701C290.027 381.919 290.115 382.116 290.202 382.291C290.289 382.465 290.377 382.64 290.464 382.815C290.551 382.989 290.639 383.186 290.726 383.404C290.813 383.579 290.901 383.753 290.988 383.928C291.512 385.02 292.058 386.024 292.626 386.941C293.237 387.859 293.892 388.317 294.591 388.317C295.202 388.317 295.617 388.099 295.835 387.662C296.054 387.225 296.185 386.745 296.228 386.221C296.228 386.046 296.228 385.893 296.228 385.762C296.272 385.588 296.294 385.413 296.294 385.238C296.294 385.195 296.294 385.151 296.294 385.107H298.063V386.09C298.063 386.177 298.063 386.265 298.063 386.352C298.063 386.439 298.063 386.527 298.063 386.614C297.932 387.793 297.386 388.863 296.425 389.824C295.464 390.741 294.089 391.199 292.298 391.199C289.896 391.199 287.866 390.151 286.206 388.055C284.59 385.959 283.171 383.622 281.948 381.046C281.817 380.74 281.664 380.435 281.49 380.129C281.359 379.823 281.228 379.517 281.097 379.212C280.835 378.6 280.573 378.033 280.31 377.509C280.048 376.941 279.786 376.395 279.524 375.871C278.389 373.556 276.992 371.788 275.332 370.565C273.716 369.298 270.899 368.469 266.882 368.076ZM266.882 347.9V366.241C267.187 366.285 267.559 366.329 267.995 366.373C268.476 366.416 268.978 366.46 269.502 366.504C269.72 366.547 269.939 366.591 270.157 366.635C270.419 366.635 270.659 366.635 270.878 366.635C271.62 366.722 272.341 366.787 273.039 366.831C273.738 366.875 274.306 366.897 274.742 366.897C278.498 366.897 281.293 365.827 283.127 363.687C285.005 361.547 285.944 359.036 285.944 356.154C285.944 356.11 285.944 356.066 285.944 356.023C285.944 355.935 285.944 355.848 285.944 355.761C285.857 353.315 285.005 351.066 283.389 349.013C281.817 346.961 279.699 345.935 277.035 345.935C276.904 345.935 276.751 345.935 276.577 345.935C276.446 345.935 276.293 345.935 276.118 345.935C274.852 345.935 273.411 346.022 271.795 346.197C270.223 346.328 268.585 346.895 266.882 347.9ZM312.352 365.455H315.3C320.759 365.455 324.034 365.084 325.126 364.342C326.261 363.556 326.829 362.682 326.829 361.722V360.084H328.729V372.661H326.829V371.023C326.829 370.019 326.261 369.146 325.126 368.403C324.034 367.661 320.759 367.29 315.3 367.29H312.352V385.566C312.352 386.614 312.527 387.334 312.876 387.728C313.226 388.121 313.597 388.361 313.99 388.448C314.165 388.492 314.317 388.514 314.448 388.514C314.579 388.514 314.71 388.514 314.841 388.514H315.759C316.894 388.514 318.182 388.448 319.623 388.317C321.108 388.186 322.637 388.011 324.209 387.793C326.96 387.313 329.515 386.614 331.873 385.697C334.231 384.78 335.563 383.601 335.869 382.16L336.262 380.194H338.031L335.869 390.348H300.103V388.514H303.836C303.967 388.514 304.098 388.514 304.229 388.514C304.36 388.514 304.513 388.492 304.688 388.448C305.081 388.361 305.452 388.121 305.802 387.728C306.151 387.334 306.326 386.614 306.326 385.566V349.668C306.326 348.62 306.151 347.9 305.802 347.507C305.452 347.114 305.081 346.873 304.688 346.786C304.513 346.742 304.36 346.721 304.229 346.721C304.098 346.721 303.967 346.721 303.836 346.721H300.103V344.886H335.607L335.738 354.057H333.904L333.773 350.651C331.24 348.992 328.685 347.922 326.109 347.441C323.576 346.961 321.065 346.721 318.575 346.721H314.841C313.924 346.721 313.269 347.005 312.876 347.572C312.527 348.096 312.352 348.795 312.352 349.668V365.455ZM358.565 372.006L345.988 350.586C345.944 350.542 345.901 350.498 345.857 350.455C345.857 350.367 345.835 350.302 345.792 350.258C345.748 350.171 345.682 350.083 345.595 349.996C345.551 349.865 345.508 349.756 345.464 349.668C345.071 348.97 344.438 348.336 343.564 347.769C342.735 347.201 341.184 346.852 338.913 346.721V344.886H356.666V346.721H352.932C352.844 346.721 352.735 346.742 352.604 346.786C352.517 346.786 352.408 346.808 352.277 346.852C352.058 346.895 351.862 347.005 351.687 347.179C351.556 347.31 351.491 347.529 351.491 347.834C351.491 348.184 351.512 348.446 351.556 348.62C351.643 348.795 351.753 348.97 351.884 349.144C351.884 349.188 351.884 349.232 351.884 349.275C351.927 349.275 351.971 349.297 352.015 349.341L363.871 369.451L369.308 361.001C369.614 360.521 369.963 359.953 370.356 359.298C370.749 358.599 371.164 357.835 371.601 357.005C371.819 356.612 372.016 356.219 372.191 355.826C372.409 355.389 372.605 354.974 372.78 354.581C373.392 353.359 373.894 352.18 374.287 351.044C374.68 349.865 374.876 348.926 374.876 348.227C374.876 348.184 374.855 348.096 374.811 347.965C374.811 347.791 374.767 347.638 374.68 347.507C374.592 347.288 374.418 347.114 374.156 346.983C373.937 346.808 373.588 346.721 373.108 346.721H369.439V344.886H384.899V346.721H382.803C382.453 346.721 382.126 346.742 381.82 346.786C381.558 346.83 381.296 346.917 381.034 347.048C380.292 347.485 379.353 348.577 378.217 350.323C377.125 352.07 375.138 355.171 372.256 359.625L364.592 371.482V385.566C364.592 386.614 364.767 387.334 365.116 387.728C365.465 388.121 365.837 388.361 366.23 388.448C366.404 388.492 366.557 388.514 366.688 388.514C366.819 388.514 366.95 388.514 367.081 388.514H370.815V390.348H352.342V388.514H356.076C356.207 388.514 356.338 388.514 356.469 388.514C356.6 388.514 356.753 388.492 356.928 388.448C357.321 388.361 357.692 388.121 358.041 387.728C358.391 387.334 358.565 386.614 358.565 385.566V372.006ZM393.62 385.566V349.668C393.62 348.62 393.446 347.9 393.096 347.507C392.747 347.114 392.376 346.873 391.983 346.786C391.808 346.742 391.655 346.721 391.524 346.721C391.393 346.721 391.262 346.721 391.131 346.721H387.397V344.886H405.87V346.721H402.136C402.005 346.721 401.874 346.721 401.743 346.721C401.612 346.721 401.459 346.742 401.285 346.786C400.892 346.873 400.52 347.114 400.171 347.507C399.822 347.9 399.647 348.62 399.647 349.668V385.566C399.647 386.614 399.822 387.334 400.171 387.728C400.52 388.121 400.892 388.361 401.285 388.448C401.459 388.492 401.612 388.514 401.743 388.514C401.874 388.514 402.005 388.514 402.136 388.514H405.87V390.348H387.397V388.514H391.131C391.262 388.514 391.393 388.514 391.524 388.514C391.655 388.514 391.808 388.492 391.983 388.448C392.376 388.361 392.747 388.121 393.096 387.728C393.446 387.334 393.62 386.614 393.62 385.566ZM406.46 363.687L425.653 385.042C425.74 385.129 425.828 385.238 425.915 385.369C426.002 385.457 426.111 385.544 426.242 385.631C427.203 386.636 428.208 387.356 429.256 387.793C430.347 388.23 431.679 388.47 433.252 388.514V390.348H422.705L401.154 366.307L410.914 356.94C411.263 356.634 411.613 356.306 411.962 355.957C412.311 355.608 412.683 355.258 413.076 354.909C413.163 354.822 413.272 354.734 413.403 354.647C413.534 354.516 413.643 354.385 413.731 354.254C414.997 353.075 416.111 351.939 417.072 350.848C418.032 349.756 418.513 348.839 418.513 348.096C418.513 347.703 418.36 347.376 418.054 347.114C417.748 346.852 417.29 346.721 416.679 346.721H413.469V344.886H430.631V346.721H429.059C428.273 346.721 427.443 346.939 426.57 347.376C425.74 347.812 424.867 348.336 423.95 348.948C423.557 349.297 423.142 349.647 422.705 349.996C422.268 350.302 421.854 350.629 421.46 350.979C421.155 351.241 420.849 351.503 420.543 351.765C420.281 351.983 420.019 352.201 419.757 352.42L406.46 363.687ZM435.495 367.486C435.495 366.176 435.626 364.713 435.888 363.097C436.15 361.481 436.631 359.844 437.329 358.184C438.028 356.394 438.967 354.669 440.146 353.009C441.369 351.306 442.876 349.778 444.666 348.424C445.146 348.074 445.627 347.747 446.107 347.441C446.631 347.136 447.133 346.852 447.614 346.59C449.841 345.454 451.981 344.734 454.033 344.428C456.086 344.122 457.789 343.969 459.143 343.969C462.418 343.969 465.235 344.406 467.593 345.28C469.951 346.109 471.96 347.157 473.62 348.424C475.41 349.778 476.895 351.306 478.074 353.009C479.297 354.669 480.258 356.394 480.956 358.184C481.612 359.844 482.07 361.481 482.332 363.097C482.638 364.713 482.791 366.176 482.791 367.486C482.791 371.853 481.917 375.674 480.17 378.95C478.424 382.225 476.24 384.845 473.62 386.81C471.567 388.383 469.296 389.518 466.807 390.217C464.362 390.872 461.807 391.199 459.143 391.199C457.92 391.199 456.326 391.068 454.361 390.806C452.439 390.588 450.452 389.998 448.4 389.038C447.745 388.776 447.09 388.47 446.435 388.121C445.823 387.728 445.212 387.291 444.601 386.81C442.024 384.845 439.884 382.225 438.181 378.95C436.478 375.674 435.583 371.853 435.495 367.486ZM442.635 367.486C442.635 368.316 442.657 369.167 442.701 370.041C442.788 370.914 442.897 371.788 443.028 372.661C443.727 376.854 445.321 380.697 447.81 384.19C450.343 387.684 454.121 389.431 459.143 389.431C464.165 389.431 467.921 387.684 470.41 384.19C472.943 380.697 474.559 376.854 475.257 372.661C475.388 371.788 475.476 370.914 475.519 370.041C475.607 369.167 475.65 368.316 475.65 367.486C475.65 361.46 474.188 356.35 471.262 352.158C468.379 347.922 464.34 345.804 459.143 345.804C453.946 345.804 449.885 347.922 446.959 352.158C444.077 356.35 442.635 361.46 442.635 367.486Z" fill="#FFFBEF"/>
</svg>
